<svg width="52" height="52" viewBox="0 0 52 52" fill="none" xmlns="http://www.w3.org/2000/svg">
<path fill-rule="evenodd" clip-rule="evenodd" d="M0 0H52V51.6291H0V0Z" fill="#002569"/>
<path d="M34.3843 25.4923C33.4093 24.0725 32.0443 22.9754 30.2243 22.3946C29.7693 22.2655 29.2493 22.1364 28.7943 22.0719C28.3393 22.0073 27.8193 21.9428 27.2993 21.9428C27.0393 21.9428 26.7143 21.9428 26.3893 21.9428C26.0643 21.9428 25.8043 21.9428 25.4793 21.9428C25.2193 21.9428 24.9593 21.9428 24.6343 21.9428C24.3743 21.9428 24.0493 21.9428 23.7893 21.9428C23.5293 21.9428 23.2043 21.9428 22.9443 21.9428C22.6843 21.9428 22.3593 21.9428 22.0993 21.9428C21.8393 21.9428 21.5793 21.9428 21.2543 21.9428C20.9943 21.9428 20.6693 21.9428 20.4093 21.9428C20.1493 21.9428 19.8243 21.9428 19.5643 21.9428C19.3043 21.9428 18.9793 21.9428 18.7193 21.9428V22.7172C18.7193 22.7172 18.7193 22.7172 18.7843 22.7172C18.7843 22.7172 18.7843 22.7172 18.8493 22.7172C19.6293 22.7818 20.2793 22.8463 20.6693 23.0399C21.1243 23.2335 21.3193 23.8144 21.3193 24.7179V35.9472C21.3193 36.8507 21.1243 37.4315 20.6693 37.6251C20.3443 37.7542 19.8893 37.8833 19.3693 37.9478C18.9793 37.8833 18.5893 37.7542 18.3293 37.5606C18.0043 37.3024 17.6793 36.8507 17.4193 36.3344L11.0493 21.6201H10.1393L4.02932 36.2699C3.76932 36.9152 3.44432 37.367 2.98932 37.6251C2.59932 37.8187 2.01432 37.9478 1.29932 37.9478V38.7222H7.14932V37.9478H6.62932C6.56432 37.9478 6.49932 37.9478 6.43432 37.9478C6.36932 37.9478 6.30432 37.9478 6.23932 37.9478C5.97932 37.9478 5.65432 37.8833 5.45932 37.6897C5.19932 37.5606 5.06932 37.3024 5.06932 36.9798C5.06932 36.8507 5.06932 36.7216 5.13432 36.6571C5.19932 36.528 5.19932 36.4635 5.26432 36.3344L6.56432 33.043H13.3243L14.6893 36.3344C14.7543 36.4635 14.8193 36.5925 14.8843 36.7862C14.9493 36.9152 14.9493 37.1088 14.9493 37.2379C14.9493 37.4961 14.8193 37.6897 14.6893 37.7542C14.4943 37.8833 14.2993 37.9478 14.0393 37.9478C13.9093 37.9478 13.8443 37.9478 13.7143 37.9478C13.6493 37.9478 13.5193 37.9478 13.4543 37.9478H12.8693V38.7222H18.8493H19.8893H27.4943C30.0293 38.7222 32.0443 37.9478 33.6043 36.4635C35.1643 34.9146 35.9443 32.914 35.9443 30.4616C35.8793 28.59 35.3593 26.9766 34.3843 25.4923ZM6.88932 31.9459L9.61932 25.1696C9.61932 25.1051 9.68432 25.0405 9.68432 25.0405C9.68432 24.976 9.74932 24.9115 9.74932 24.9115C9.74932 24.8469 9.81432 24.7824 9.81432 24.7179C9.81432 24.6533 9.87932 24.5888 9.87932 24.5243C9.94432 24.7824 10.0093 25.0405 10.1393 25.3632C10.2693 25.6214 10.3343 25.8795 10.4643 26.2022C10.4643 26.2667 10.5293 26.3313 10.5293 26.3958C10.5943 26.4603 10.5943 26.5249 10.5943 26.5894L12.8043 31.9459H6.88932ZM31.5243 35.6245C30.6793 37.1088 29.1193 37.8833 26.8443 37.8833C25.6743 37.8833 24.8293 37.7542 24.4393 37.4315C24.0493 37.1088 23.8543 36.3344 23.8543 35.1082V22.7818C23.9843 22.7818 24.1793 22.7818 24.3093 22.7172C24.4393 22.7172 24.6343 22.7172 24.7643 22.7172C24.8943 22.7172 25.0243 22.7172 25.2193 22.7172C25.3493 22.7172 25.5443 22.7172 25.6743 22.7172C28.1443 22.7172 29.9643 23.4271 31.1343 24.7824C32.3043 26.1377 32.8243 28.0092 32.8243 30.4616C32.8893 32.3331 32.4343 34.0756 31.5243 35.6245Z" fill="white"/>
<path d="M44.1363 29.6222C45.5013 29.6867 46.7363 30.074 47.9063 30.7839C49.0113 31.4938 49.5964 32.6554 49.5964 34.1397C49.5964 35.5595 49.0763 36.7212 48.1013 37.4956C47.1263 38.3346 45.9563 38.7218 44.5913 38.7218H35.8813V37.9474C35.8813 37.9474 35.8813 37.9474 35.9463 37.9474C35.9463 37.9474 35.9463 37.9474 36.0113 37.9474C36.8563 37.8829 37.4413 37.8183 37.8313 37.6247C38.2213 37.4311 38.4813 36.8503 38.4813 35.9468V24.7174C38.4813 23.8139 38.2863 23.2331 37.8313 23.0395C37.3763 22.8459 36.7913 22.7168 36.0113 22.7168C36.0113 22.7168 36.0113 22.7168 35.9463 22.7168C35.9463 22.7168 35.9463 22.7168 35.8813 22.7168V21.9424H44.0714C45.2414 21.9424 46.2813 22.2651 47.1913 22.8459C48.1013 23.4267 48.6214 24.3948 48.6214 25.621C48.6214 26.9762 48.1663 27.9443 47.2563 28.5251C46.3463 29.0414 45.3063 29.4286 44.1363 29.6222ZM41.0163 30.1385V35.9468C41.0163 36.7857 41.2763 37.302 41.7313 37.4956C42.1863 37.7538 42.7713 37.8183 43.4863 37.8183C44.7213 37.8183 45.5664 37.4311 46.0214 36.5921C46.4764 35.8177 46.7364 34.8496 46.7364 33.7525C46.7364 31.881 46.1513 30.8484 44.9813 30.5257C43.7463 30.2676 42.4463 30.1385 41.0163 30.1385ZM41.0163 29.2995C42.3163 29.2995 43.4863 29.1705 44.4613 28.8478C45.4363 28.5251 45.8913 27.6216 45.8913 26.0082C45.8913 24.9756 45.6963 24.2012 45.3063 23.6203C44.9163 23.0395 44.1363 22.7168 43.0313 22.7168H41.0163V29.2995Z" fill="white"/>
</svg>
